<svg width="34" height="34" viewBox="0 0 34 34" fill="none" xmlns="http://www.w3.org/2000/svg">
<g clip-path="url(#clip0_96_81)">
<path d="M30.89 6.88684H28.2287V11.1449H27.1642V12.2094H28.2287V29.2417H30.89C31.7703 29.2417 32.4868 29.9581 32.4868 30.8385C32.4868 31.7188 31.7703 32.4352 30.89 32.4352H1.61579V12.2094H6.10858C5.96167 12.5565 5.8318 12.9109 5.72695 13.2739H3.74482V18.5965H5.72695C5.92388 19.2773 6.19587 19.933 6.53917 20.5547L5.13667 21.9567L8.90027 25.7208L10.3022 24.3183C10.9239 24.6616 11.5797 24.9336 12.2609 25.13V27.1127H17.5835V25.1305C18.2643 24.9336 18.9206 24.6621 19.5422 24.3188L20.9442 25.7213L24.7078 21.9572L23.3053 20.5552C23.6491 19.9336 23.9206 19.2778 24.1175 18.5971H26.0997V13.2739H24.1175C24.0127 12.9109 23.8828 12.5565 23.7359 12.2094H26.0997V11.1449H23.4762L24.7078 9.9138L20.9442 6.14967L19.5422 7.55217C18.9211 7.20886 18.2654 6.93688 17.5835 6.74047V4.75781H12.2609V6.73994C11.5797 6.93688 10.9234 7.20833 10.3022 7.55164L8.90027 6.14914L5.13667 9.91326L6.36832 11.1449H0.55127V33.4998H30.89C32.3574 33.4998 33.5513 32.3059 33.5513 30.8385V9.54814C33.5513 8.0807 32.3574 6.88684 30.89 6.88684ZM6.55514 14.3385L6.65361 13.9313C6.86066 13.0759 7.19864 12.26 7.65958 11.5063L7.8778 11.1486L6.64243 9.91326L8.9008 7.65543L10.1356 8.8908L10.4933 8.67204C11.2465 8.21164 12.0619 7.87365 12.9183 7.6666L13.3255 7.56814V5.82233H16.519V7.56814L16.9267 7.6666C17.7826 7.87365 18.5985 8.21164 19.3517 8.67204L19.7094 8.8908L20.9442 7.65543L23.2026 9.9138L21.9672 11.1492L22.1854 11.5068C22.6458 12.2605 22.9844 13.0759 23.1914 13.9318L23.2893 14.3385H25.0351V17.532H23.2893L23.1909 17.9392C22.9838 18.7945 22.6458 19.6105 22.1849 20.3642L21.9667 20.7218L23.202 21.9572L20.9437 24.2156L19.7088 22.9802L19.3512 23.1984C18.5975 23.6588 17.7815 23.9973 16.9262 24.2039L16.519 24.3023V26.0481H13.3255V24.3023L12.9178 24.2039C12.0629 23.9973 11.2465 23.6588 10.4928 23.1984L10.1351 22.9802L8.90027 24.2156L6.6419 21.9572L7.87727 20.7218L7.65904 20.3642C7.19864 19.6105 6.86012 18.7951 6.65308 17.9392L6.55514 17.532H4.80933V14.3385H6.55514ZM32.4868 28.7105C32.0418 28.3762 31.4888 28.1772 30.89 28.1772H29.2932V7.95136H30.89C31.7703 7.95136 32.4868 8.66778 32.4868 9.54814V28.7105Z" fill="#E5E6EE" stroke="white" stroke-width="0.4"/>
<path d="M14.9222 21.2584C17.8571 21.2584 20.2448 18.8707 20.2448 15.9359C20.2448 13.001 17.8571 10.6133 14.9222 10.6133C11.9873 10.6133 9.59961 13.001 9.59961 15.9359C9.59961 18.8707 11.9873 21.2584 14.9222 21.2584ZM14.9222 11.6778C17.27 11.6778 19.1803 13.5881 19.1803 15.9359C19.1803 18.2837 17.27 20.1939 14.9222 20.1939C12.5744 20.1939 10.6641 18.2837 10.6641 15.9359C10.6641 13.5881 12.5744 11.6778 14.9222 11.6778Z" fill="#E5E6EE" stroke="white" stroke-width="0.4"/>
<path d="M4.2771 7.41936C5.45126 7.41936 6.40614 6.46448 6.40614 5.29032C6.40614 5.00823 6.34812 4.7405 6.24859 4.49406C8.73583 2.60774 11.7835 1.56452 14.9223 1.56452V0.5C11.5531 0.5 8.28075 1.61934 5.60988 3.64352C5.24368 3.34652 4.78381 3.16129 4.2771 3.16129C3.10294 3.16129 2.14807 4.11616 2.14807 5.29032C2.14807 6.46448 3.10294 7.41936 4.2771 7.41936ZM4.2771 4.22581C4.86418 4.22581 5.34162 4.70324 5.34162 5.29032C5.34162 5.8774 4.86418 6.35484 4.2771 6.35484C3.69002 6.35484 3.21259 5.8774 3.21259 5.29032C3.21259 4.70324 3.69002 4.22581 4.2771 4.22581Z" fill="#E5E6EE" stroke="white" stroke-width="0.4"/>
<path d="M22.9061 27.1124C22.9061 27.3509 22.9545 27.5766 23.0275 27.7911C20.6355 29.4325 17.8523 30.306 14.9222 30.306V31.3705C18.062 31.3705 21.0443 30.4369 23.6087 28.6821C23.9871 29.0259 24.4848 29.2415 25.0351 29.2415C26.2093 29.2415 27.1642 28.2866 27.1642 27.1124C27.1642 25.9383 26.2093 24.9834 25.0351 24.9834C23.861 24.9834 22.9061 25.9383 22.9061 27.1124ZM26.0997 27.1124C26.0997 27.6995 25.6222 28.1769 25.0351 28.1769C24.4481 28.1769 23.9706 27.6995 23.9706 27.1124C23.9706 26.5253 24.4481 26.0479 25.0351 26.0479C25.6222 26.0479 26.0997 26.5253 26.0997 27.1124Z" fill="#E5E6EE" stroke="white" stroke-width="0.4"/>
</g>
<defs>
<clipPath id="clip0_96_81">
<rect width="33" height="33" fill="white" transform="translate(0.55127 0.5)"/>
</clipPath>
</defs>
</svg>
