<svg width="26" height="27" viewBox="0 0 26 27" fill="none" xmlns="http://www.w3.org/2000/svg">
<g clip-path="url(#clip0_252_112)">
<mask id="mask0_252_112" style="mask-type:luminance" maskUnits="userSpaceOnUse" x="0" y="1" width="26" height="26">
<path d="M25.686 1.1748H0.686035V26.1748H25.686V1.1748Z" fill="white"/>
</mask>
<g mask="url(#mask0_252_112)">
<path d="M23.1798 11.4819H25.6861C25.4981 7.46556 23.5181 3.93172 20.5169 1.64478L18.7312 3.43049C21.275 5.2538 22.9856 8.16104 23.1798 11.4819Z" fill="#F88379"/>
<path d="M7.64721 3.43677L5.85521 1.64478C2.85398 3.93172 0.874005 7.46556 0.686035 11.4819H3.19233C3.38652 8.16104 5.09705 5.2538 7.64721 3.43677Z" fill="#F88379"/>
<path d="M20.7047 12.1084C20.7047 8.25501 18.6559 5.04073 15.0656 4.18858V3.33649C15.0656 2.29637 14.2261 1.45679 13.1859 1.45679C12.1458 1.45679 11.3062 2.29637 11.3062 3.33649V4.18864C7.71605 5.04079 5.66718 8.25507 5.66718 12.1085V18.3741L3.16089 20.8804V22.1335H23.211V20.8804L20.7047 18.3741V12.1084Z" fill="#E5E6EE"/>
<path d="M13.1859 25.8929C13.3613 25.8929 13.5305 25.8741 13.6934 25.8428C14.508 25.6736 15.1784 25.1097 15.4979 24.3641C15.6232 24.0634 15.6922 23.7375 15.6922 23.3867H10.6797C10.6796 24.7714 11.8012 25.8929 13.1859 25.8929Z" fill="#E5E6EE"/>
</g>
</g>
<defs>
<clipPath id="clip0_252_112">
<rect width="25" height="26" fill="white" transform="translate(0.686035 0.962891)"/>
</clipPath>
</defs>
</svg>
