<svg width="26" height="26" viewBox="0 0 26 26" fill="none" xmlns="http://www.w3.org/2000/svg">
<mask id="mask0_234_3586" style="mask-type:luminance" maskUnits="userSpaceOnUse" x="0" y="0" width="26" height="26">
<path d="M25.5513 0.211914H0.55127V25.2119H25.5513V0.211914Z" fill="white"/>
</mask>
<g mask="url(#mask0_234_3586)">
<path d="M24.9731 15.9994L22.3356 13.9307C22.3856 13.5306 22.4231 13.1244 22.4231 12.7119C22.4231 12.2994 22.3856 11.8932 22.3356 11.4932L24.9793 9.42437C25.2168 9.23687 25.2856 8.89937 25.1293 8.62439L22.6293 4.29314C22.4731 4.02437 22.1481 3.91187 21.8668 4.02437L18.7544 5.28062C18.1106 4.78685 17.4044 4.36814 16.6419 4.04939L16.1731 0.736913C16.1168 0.443183 15.8606 0.211914 15.5481 0.211914H10.5481C10.2356 0.211914 9.97933 0.443183 9.92935 0.736913L9.4606 4.04939C8.69812 4.36814 7.99183 4.78064 7.34812 5.28062L4.23562 4.02437C3.95437 3.91814 3.62935 4.02437 3.47314 4.29314L0.973067 8.62439C0.816798 8.89316 0.885587 9.23066 1.12307 9.42437L3.76055 11.4932C3.71057 11.8932 3.67307 12.2994 3.67307 12.7119C3.67307 13.1244 3.71057 13.5306 3.76055 13.9307L1.12307 15.9994C0.885587 16.1869 0.816798 16.5244 0.973067 16.7994L3.47309 21.1307C3.62935 21.3994 3.95432 21.5119 4.23556 21.3994L7.34806 20.1432C7.99183 20.6369 8.69806 21.0557 9.46054 21.3744L9.92929 24.6869C9.97927 24.9806 10.2356 25.2119 10.548 25.2119H15.548C15.8605 25.2119 16.1168 24.9806 16.1668 24.6869L16.6355 21.3744C17.398 21.0557 18.1043 20.6432 18.748 20.1432L21.8605 21.3994C22.1418 21.5057 22.4668 21.3994 22.623 21.1307L25.123 16.7994C25.2793 16.5307 25.2106 16.1932 24.9731 15.9994ZM13.0481 17.0869C10.6293 17.0869 8.67304 15.1307 8.67304 12.7119C8.67304 10.2932 10.6293 8.33693 13.0481 8.33693C15.4668 8.33693 17.4231 10.2932 17.4231 12.712C17.4231 15.1307 15.4668 17.0869 13.0481 17.0869Z" fill="#E5E6EE"/>
</g>
</svg>
