<svg width="40" height="40" viewBox="0 0 40 40" fill="none" xmlns="http://www.w3.org/2000/svg">
<g clip-path="url(#clip0_234_3587)">
<mask id="mask0_234_3587" style="mask-type:luminance" maskUnits="userSpaceOnUse" x="0" y="0" width="40" height="40">
<path d="M39.5513 0.211914H0.55127V39.2119H39.5513V0.211914Z" fill="white"/>
</mask>
<g mask="url(#mask0_234_3587)">
<path d="M14.2475 30.7881L8.42915 33.9618C8.08772 34.148 7.78087 34.3769 7.49536 34.6263C10.8877 37.4866 15.2667 39.2121 20.0512 39.2121C24.8004 39.2121 29.1514 37.5123 32.5341 34.6911C32.2221 34.4276 31.8836 34.1907 31.5084 34.0038L25.2779 30.8889C24.4729 30.4864 23.9644 29.6637 23.9644 28.7638V26.3193C24.1396 26.1199 24.3397 25.8638 24.5538 25.5614C25.403 24.362 26.0454 23.0426 26.4906 21.6584C27.2897 21.4119 27.8784 20.6739 27.8784 19.7967V17.1874C27.8784 16.6135 27.6231 16.1006 27.2264 15.7415V11.9695C27.2264 11.9695 28.0013 6.09961 20.0519 6.09961C12.1025 6.09961 12.8774 11.9695 12.8774 11.9695V15.7415C12.48 16.1006 12.2254 16.6135 12.2254 17.1874V19.7967C12.2254 20.484 12.5867 21.0889 13.1276 21.4384C13.7795 24.2766 15.4867 26.3193 15.4867 26.3193V28.7035C15.486 29.5718 15.0106 30.3716 14.2475 30.7881Z" fill="#E5E6EE"/>
<path d="M20.3846 0.214818C9.61689 0.0308559 0.738138 8.61086 0.554175 19.3785C0.449685 25.4839 3.17085 30.9711 7.50353 34.6202C7.78684 34.3729 8.09074 34.1463 8.4285 33.9623L14.2469 30.7886C15.01 30.3721 15.4853 29.5722 15.4853 28.7025V26.3183C15.4853 26.3183 13.7774 24.2756 13.1262 21.4374C12.5861 21.0879 12.224 20.4838 12.224 19.7958V17.1864C12.224 16.6125 12.4794 16.0996 12.876 15.7405V11.9685C12.876 11.9685 12.1011 6.09867 20.0505 6.09867C27.9999 6.09867 27.2251 11.9685 27.2251 11.9685V15.7405C27.6224 16.0996 27.877 16.6125 27.877 17.1864V19.7958C27.877 20.6729 27.2883 21.4109 26.4892 21.6574C26.044 23.0416 25.4016 24.361 24.5525 25.5604C24.3383 25.8628 24.1382 26.1189 23.963 26.3183V28.7628C23.963 29.6628 24.4715 30.4862 25.2765 30.8879L31.507 34.0028C31.8808 34.1897 32.2185 34.4259 32.5298 34.6886C36.7315 31.1845 39.446 25.9452 39.5468 20.0452C39.7323 9.27754 31.153 0.398781 20.3846 0.214818Z" fill="#30333F"/>
</g>
</g>
<defs>
<clipPath id="clip0_234_3587">
<rect width="39" height="40" fill="white" transform="translate(0.55127)"/>
</clipPath>
</defs>
</svg>
